<?xml version="1.0" encoding="UTF-8" standalone="no"?>
<svg
   xmlns:dc="http://purl.org/dc/elements/1.1/"
   xmlns:cc="http://creativecommons.org/ns#"
   xmlns:rdf="http://www.w3.org/1999/02/22-rdf-syntax-ns#"
   xmlns:svg="http://www.w3.org/2000/svg"
   xmlns="http://www.w3.org/2000/svg"
   xmlns:sodipodi="http://sodipodi.sourceforge.net/DTD/sodipodi-0.dtd"
   xmlns:inkscape="http://www.inkscape.org/namespaces/inkscape"
   id="svg8"
   version="1.1"
   viewBox="0 0 31.749999 9.2604169"
   height="35"
   width="120"
   sodipodi:docname="wordmark.svg"
   inkscape:version="0.92.5 (2060ec1f9f, 2020-04-08)">
  <sodipodi:namedview
     pagecolor="#ffffff"
     bordercolor="#666666"
     borderopacity="1"
     objecttolerance="10"
     gridtolerance="10"
     guidetolerance="10"
     inkscape:pageopacity="0"
     inkscape:pageshadow="2"
     inkscape:window-width="1294"
     inkscape:window-height="704"
     id="namedview19"
     showgrid="false"
     inkscape:zoom="7.3224839"
     inkscape:cx="62.194693"
     inkscape:cy="11.646737"
     inkscape:window-x="72"
     inkscape:window-y="27"
     inkscape:window-maximized="1"
     inkscape:current-layer="layer1"
     inkscape:snap-text-baseline="true" />
  <defs
     id="defs2">
    <pattern
       id="pattern3813"
       patternTransform="matrix(0.26458333,0,0,0.26458333,9.3053961,291.83534)"
       height="18.519798"
       width="109.65979"
       patternUnits="userSpaceOnUse">
      <g
         transform="matrix(3.7795276,0,0,3.7795276,-35.170001,-1102.9997)"
         aria-label="希  顶  维  基"
         style="font-style:normal;font-weight:normal;font-size:10.58333302px;line-height:1.25;font-family:sans-serif;letter-spacing:0px;word-spacing:0px;fill:#483737;fill-opacity:1;stroke:none;stroke-width:0.26458332"
         id="text20">
        <path
           d="m 9.5646876,293.24821 c 0.8202084,-0.11113 1.6510004,-0.3175 2.3706664,-0.55563 0.460375,0.17463 0.836084,0.36513 1.116542,0.56092 0.328083,0.20108 0.635,-0.26458 -0.672042,-0.71437 0.312209,-0.11642 0.597959,-0.23813 0.836084,-0.35454 0.137583,0.0423 0.227541,0.037 0.264583,-0.0106 l -0.433917,-0.32279 c -0.269875,0.17992 -0.645583,0.37571 -1.084791,0.55562 -0.465667,-0.12699 -1.068917,-0.24341 -1.857375,-0.34395 l -0.02646,0.10054 c 0.566209,0.12171 1.063625,0.254 1.49225,0.39687 -0.635,0.24342 -1.354666,0.45509 -2.0267081,0.58738 z m 3.9105414,0.381 h -2.180166 c 0.08467,-0.14817 0.164041,-0.29104 0.227541,-0.43392 0.127,0.0106 0.174625,-0.0106 0.206375,-0.0741 l -0.513291,-0.19579 c -0.07938,0.22754 -0.185209,0.46566 -0.312209,0.70379 H 9.353021 l 0.047625,0.15346 h 1.418167 c -0.365125,0.62971 -0.8837086,1.24354 -1.5134169,1.67746 l 0.047625,0.0688 c 0.4286249,-0.22225 0.8043329,-0.51859 1.1218329,-0.83609 v 1.79388 h 0.05292 c 0.164042,0 0.275167,-0.0847 0.275167,-0.11642 v -1.66687 h 0.9525 v 2.01612 h 0.0635 c 0.132291,0 0.275166,-0.0794 0.275166,-0.12171 v -1.89441 h 1.053042 v 1.22237 c 0,0.0741 -0.02117,0.10584 -0.111125,0.10584 -0.09525,0 -0.534458,-0.0371 -0.534458,-0.0371 v 0.0794 c 0.201083,0.0265 0.3175,0.0688 0.375708,0.127 0.06879,0.0582 0.08467,0.14817 0.100542,0.25929 0.455083,-0.0476 0.507999,-0.22225 0.507999,-0.48683 v -1.2065 c 0.111125,-0.0106 0.195792,-0.0582 0.227542,-0.10584 l -0.4445,-0.32808 -0.174625,0.21696 h -1.000125 v -0.44979 c 0.121709,-0.0212 0.164042,-0.0688 0.174625,-0.13759 l -0.513291,-0.0582 v 0.64558 h -0.883709 l -0.1905,-0.0794 c 0.201084,-0.22225 0.370417,-0.45508 0.518584,-0.68791 h 2.841624 c 0.07938,0 0.121709,-0.0265 0.137584,-0.0847 -0.174625,-0.16404 -0.460375,-0.37571 -0.460375,-0.37571 z"
           style="font-style:normal;font-variant:normal;font-weight:normal;font-stretch:normal;font-size:5.29166651px;font-family:'Noto Serif CJK SC';-inkscape-font-specification:'Noto Serif CJK SC';fill:#483737;stroke-width:0.26458332"
           id="path101" />
        <path
           d="m 19.248421,292.54442 c 0.07408,0 0.121708,-0.0265 0.137583,-0.0847 -0.169333,-0.15875 -0.4445,-0.381 -0.4445,-0.381 l -0.243416,0.31221 h -1.381125 l 0.04233,0.15346 h 0.830792 v 3.57187 c 0,0.09 -0.02646,0.11642 -0.127,0.11642 -0.111125,0 -0.650875,-0.037 -0.650875,-0.037 v 0.0794 c 0.243416,0.0317 0.375708,0.0741 0.465666,0.13759 0.0635,0.0476 0.09525,0.14287 0.105834,0.24341 0.481541,-0.0476 0.545041,-0.24871 0.545041,-0.52387 v -3.58775 z m 1.227667,1.04775 c -0.0053,1.524 0.0635,2.45004 -1.635125,3.048 l 0.05821,0.0952 c 1.931458,-0.56092 1.894417,-1.49754 1.920875,-2.95275 0.116417,-0.0212 0.164042,-0.0741 0.174625,-0.14288 z m 0.269875,2.02671 c 0.381,0.26987 0.910166,0.73554 1.121833,1.0795 0.439208,0.19579 0.576792,-0.66675 -1.068917,-1.13242 z m 0.756708,-3.34434 h -2.106083 l 0.04233,0.15346 h 0.931333 c -0.02646,0.24871 -0.07937,0.55563 -0.121708,0.76729 h -0.4445 l -0.365125,-0.16933 v 2.62467 h 0.05821 c 0.137584,0 0.280459,-0.0847 0.280459,-0.12171 v -2.17488 h 1.68275 v 2.19075 h 0.05292 c 0.111125,0 0.275167,-0.0847 0.280459,-0.11641 v -2.032 c 0.08996,-0.0159 0.164041,-0.0529 0.1905,-0.09 l -0.386292,-0.30692 -0.185208,0.19579 h -1.000125 c 0.127,-0.20637 0.259291,-0.508 0.370416,-0.76729 h 1.27 c 0.07408,0 0.121709,-0.0265 0.137584,-0.0847 -0.174625,-0.16404 -0.449792,-0.3757 -0.449792,-0.3757 z"
           style="font-style:normal;font-variant:normal;font-weight:normal;font-stretch:normal;font-size:5.29166651px;font-family:'Noto Serif CJK SC';-inkscape-font-specification:'Noto Serif CJK SC';fill:#483737;stroke-width:0.26458332"
           id="path103" />
        <path
           d="m 28.381821,291.87238 c 0.195792,0.21166 0.407458,0.5662 0.418042,0.85725 0.338666,0.29104 0.682625,-0.46038 -0.354542,-0.89429 z m -2.799292,3.37079 c 0.04763,-0.0159 0.09525,-0.0582 0.137584,-0.127 0.5715,-0.17992 1.095375,-0.37042 1.386416,-0.47625 l -0.01587,-0.0794 c -0.492125,0.0741 -0.978958,0.14288 -1.317625,0.1905 0.486834,-0.47096 1.021292,-1.143 1.30175,-1.60337 0.105834,0.0159 0.174625,-0.0212 0.201084,-0.0635 l -0.481542,-0.29634 c -0.0635,0.16934 -0.169333,0.381 -0.301625,0.60325 -0.296333,0.0212 -0.582083,0.0371 -0.804333,0.0423 0.322791,-0.34396 0.682625,-0.85725 0.889,-1.22238 0.105833,0.0106 0.169333,-0.037 0.1905,-0.0847 l -0.508,-0.22754 c -0.121709,0.40216 -0.460375,1.14299 -0.735542,1.4552 -0.03704,0.0265 -0.127,0.0476 -0.127,0.0476 l 0.185208,0.47096 c 0.03704,-0.0159 0.06879,-0.0423 0.100542,-0.0847 0.248708,-0.0688 0.502708,-0.14288 0.703792,-0.21167 -0.254,0.43392 -0.5715,0.88371 -0.841375,1.13771 -0.04233,0.0317 -0.142875,0.0529 -0.142875,0.0529 z m 0.08467,1.16416 c 0.04763,-0.0212 0.09525,-0.0688 0.105833,-0.13229 0.635,-0.30162 1.105959,-0.56091 1.449917,-0.75671 l -0.02117,-0.0741 c -0.709083,0.22754 -1.439333,0.42333 -1.772708,0.49742 z m 2.0955,-1.2065 h 0.841375 v 0.97367 h -0.841375 z m 0.841375,-2.14312 v 0.92075 h -0.841375 v -0.92075 z m 0,1.98967 h -0.841375 v -0.91017 h 0.841375 z m 1.005417,1.12712 h -0.682625 v -0.97367 h 0.989541 c 0.07408,0 0.121709,-0.0265 0.137584,-0.0847 -0.15875,-0.15875 -0.418042,-0.36513 -0.418042,-0.36513 l -0.22225,0.29634 h -0.486833 v -0.91017 h 0.989541 c 0.07408,0 0.121709,-0.0265 0.137584,-0.0847 -0.15875,-0.15875 -0.418042,-0.36512 -0.418042,-0.36512 l -0.22225,0.29104 h -0.486833 v -0.92075 h 1.153583 c 0.07408,0 0.121708,-0.0265 0.137583,-0.0847 -0.164041,-0.15875 -0.428625,-0.37041 -0.428625,-0.37041 l -0.227541,0.29633 h -1.730375 l -0.05821,-0.0265 c 0.116417,-0.24871 0.211667,-0.49742 0.28575,-0.70908 0.137584,0.005 0.179917,-0.0265 0.201084,-0.09 l -0.555625,-0.17462 c -0.132292,0.67204 -0.460375,1.64041 -0.904875,2.29658 l 0.0635,0.0582 c 0.22225,-0.22225 0.407458,-0.48155 0.576791,-0.75142 v 3.22262 h 0.05292 c 0.15875,0 0.269875,-0.0899 0.269875,-0.11641 v -0.28046 h 2.375958 c 0.07408,0 0.121709,-0.0265 0.137584,-0.0847 -0.169334,-0.15875 -0.433917,-0.37041 -0.433917,-0.37041 z"
           style="font-style:normal;font-variant:normal;font-weight:normal;font-stretch:normal;font-size:5.29166651px;font-family:'Noto Serif CJK SC';-inkscape-font-specification:'Noto Serif CJK SC';fill:#483737;stroke-width:0.26458332"
           id="path105" />
        <path
           d="m 37.277096,296.43908 h -1.30175 v -0.76729 h 1.042458 c 0.07408,0 0.121709,-0.0265 0.137584,-0.0794 -0.15875,-0.14817 -0.41275,-0.34925 -0.41275,-0.34925 l -0.22225,0.28046 h -0.545042 v -0.46038 c 0.116417,-0.0159 0.15875,-0.0635 0.169333,-0.13229 l -0.523875,-0.0529 v 0.64559 h -1.158875 l 0.04233,0.14816 H 35.6208 v 0.76729 h -1.989666 l 0.04762,0.15346 h 4.191 c 0.07408,0 0.132291,-0.0265 0.142875,-0.0847 -0.185209,-0.16405 -0.481542,-0.39159 -0.481542,-0.39159 z m -2.280708,-1.97379 V 293.952 h 1.635125 v 0.51329 z m 1.635125,-1.81504 v 0.49742 h -1.635125 v -0.49742 z m -1.635125,0.65088 h 1.635125 v 0.49741 h -1.635125 z m 3.106208,1.31762 c 0.07937,0 0.127,-0.0265 0.142875,-0.0847 -0.174625,-0.16933 -0.465667,-0.39687 -0.465667,-0.39687 l -0.248708,0.32808 h -0.550333 v -1.81504 h 0.926041 c 0.07408,0 0.127,-0.0265 0.142875,-0.0794 -0.174625,-0.15875 -0.449791,-0.38629 -0.449791,-0.38629 l -0.243417,0.31749 h -0.375708 v -0.41804 c 0.127,-0.0212 0.179916,-0.0741 0.195791,-0.15345 l -0.545041,-0.0582 v 0.6297 h -1.635125 v -0.41804 c 0.132291,-0.0265 0.174625,-0.0794 0.1905,-0.15345 l -0.53975,-0.0582 v 0.6297 h -1.021292 l 0.04233,0.14817 h 0.978959 v 1.81504 h -1.248834 l 0.03704,0.15346 h 1.285875 c -0.306917,0.48683 -0.783167,0.92604 -1.354667,1.23825 l 0.05292,0.09 c 0.756708,-0.31221 1.381125,-0.75142 1.756833,-1.32821 h 1.381125 c 0.333375,0.55563 0.894292,1.016 1.486959,1.25413 0.02646,-0.15346 0.121708,-0.254 0.264583,-0.3228 l 0.01058,-0.0635 c -0.555625,-0.13229 -1.23825,-0.4445 -1.598083,-0.86783 z"
           style="font-style:normal;font-variant:normal;font-weight:normal;font-stretch:normal;font-size:5.29166651px;font-family:'Noto Serif CJK SC';-inkscape-font-specification:'Noto Serif CJK SC';fill:#483737;stroke-width:0.26458332"
           id="path107" />
      </g>
    </pattern>
    <pattern
       id="pattern3822"
       patternTransform="matrix(0.26458333,0,0,0.26458333,8.4666669,288.56173)"
       height="10.360053"
       width="112.60185"
       patternUnits="userSpaceOnUse">
      <text
         xml:space="preserve"
         style="font-style:normal;font-weight:normal;font-size:15.99991798px;line-height:1.25;font-family:sans-serif;letter-spacing:0px;word-spacing:0px;fill:#483737;fill-opacity:1;stroke:none;stroke-width:0.99999487"
         x="-0.079999998"
         y="10.173333"
         id="text24"
         transform="scale(0.99999491,1.0000051)"><tspan
           id="tspan22"
           x="-0.079999998"
           y="10.173333"
           style="font-style:normal;font-variant:normal;font-weight:normal;font-stretch:normal;font-size:13.33333302px;font-family:'Fira Xdi8';-inkscape-font-specification:'Fira Xdi8';fill:#483737;stroke-width:0.99999487">⇧xdi8 <tspan
   style="font-size:7.99999952px;fill:#483737;stroke-width:0.99999487"
   id="tspan13"> </tspan>⇧aho  ⇧wVa <tspan
   style="font-size:3.99999976px;fill:#483737;stroke-width:0.99999487"
   id="tspan15"> </tspan> ⇧Nad</tspan></text>
    </pattern>
    <pattern
       patternUnits="userSpaceOnUse"
       width="112.60185"
       height="10.360052"
       patternTransform="matrix(0.26458333,0,0,0.26458333,8.4666668,288.56173)"
       id="pattern3737">
      <text
         xml:space="preserve"
         style="font-style:normal;font-weight:normal;font-size:15.99991798px;line-height:1.25;font-family:sans-serif;letter-spacing:0px;word-spacing:0px;fill:#483737;fill-opacity:1;stroke:none;stroke-width:0.99999487"
         x="-0.079999842"
         y="10.173339"
         id="text3735"
         transform="scale(0.99999491,1.0000051)"><tspan
           id="tspan3733"
           x="-0.079999842"
           y="10.173339"
           style="font-style:normal;font-variant:normal;font-weight:normal;font-stretch:normal;font-size:13.33333302px;font-family:'Fira Xdi8';-inkscape-font-specification:'Fira Xdi8';fill:#483737;stroke-width:0.99999487">⇧xdi8 <tspan
   style="font-size:7.99999952px;fill:#483737;stroke-width:0.99999487"
   id="tspan3729"> </tspan>⇧aho  ⇧wVa <tspan
   style="font-size:3.99999976px;fill:#483737;stroke-width:0.99999487"
   id="tspan3731"> </tspan> ⇧Nad</tspan></text>
    </pattern>
    <pattern
       patternUnits="userSpaceOnUse"
       width="22.584"
       height="51.960189"
       patternTransform="matrix(0.26458333,0,0,0.26458333,8.1544279,262.94546)"
       id="pattern97">
      <g
         id="text76"
         style="font-style:normal;font-weight:normal;font-size:4.23333311px;line-height:1.25;font-family:sans-serif;letter-spacing:0px;word-spacing:0px;fill:#000000;fill-opacity:1;stroke:none;stroke-width:0.26458332"
         aria-label="绚 耿"
         transform="matrix(3.7795276,0,0,3.7795276,-30.819885,-993.80962)">
        <path
           id="path82"
           style="font-style:normal;font-variant:normal;font-weight:normal;font-stretch:normal;font-size:6.3499999px;font-family:'Noto Serif CJK SC';-inkscape-font-specification:'Noto Serif CJK SC';stroke-width:0.26458332"
           d="m 8.4528779,266.96501 c 0.0635,-0.0254 0.12065,-0.0762 0.1651,-0.1524 0.7239,-0.2159 1.37795,-0.45085 1.7526001,-0.5715 l -0.01905,-0.1016 c -0.6096001,0.0953 -1.2192001,0.1778 -1.6383001,0.22225 0.64135,-0.55245 1.3398501,-1.35255 1.7145001,-1.91135 0.12065,0.0318 0.2032,-0.0127 0.23495,-0.0698 l -0.5588,-0.34925 c -0.09525,0.2159 -0.2540001,0.4826 -0.4381501,0.76835 -0.38735,0.0254 -0.7747,0.0508 -1.0668,0.0635 0.4318,-0.4445 0.89535,-1.07315 1.16205,-1.5367 0.127,0.0127 0.2032,-0.0381 0.23495,-0.1016 l -0.6096,-0.27305 c -0.17145,0.50165 -0.64135,1.45415 -1.02235,1.84785 -0.0381,0.0317 -0.15875,0.0571 -0.15875,0.0571 l 0.2286,0.55245 c 0.04445,-0.019 0.09525,-0.0635 0.1397,-0.127 0.3556,-0.0953 0.6985,-0.2032 0.9652,-0.28575 -0.34925,0.51435 -0.76835,1.03505 -1.1176,1.33985 -0.0508,0.0381 -0.18415,0.0635 -0.18415,0.0635 z m 0.0508,1.40335 c 0.0635,-0.0254 0.1143,-0.0889 0.13335,-0.1651 0.8128,-0.3556 1.4097001,-0.67945 1.8542001,-0.9144 l -0.03175,-0.0953 c -0.8953501,0.27305 -1.8161001,0.52705 -2.2288501,0.61595 z m 3.7719001,-3.175 v 0.79375 h -1.0922 v -0.79375 z m -1.0922,1.8034 v -0.8255 h 1.0922 v 0.8255 z m 2.35585,-3.2385 -0.254,0.2794 h -2.02565 c 0.10795,-0.2413 0.20955,-0.50165 0.29845,-0.762 0.1397,0.006 0.20955,-0.0508 0.23495,-0.127 l -0.6604,-0.2032 c -0.2159,0.9906 -0.6096,2.01295 -1.016,2.667 l 0.1016,0.0571 c 0.20955,-0.22225 0.40005,-0.47625 0.5842,-0.7747 v 2.81305 h 0.0635 c 0.15875,0 0.3175,-0.0889 0.3175,-0.13335 v -0.3937 h 1.0922 v 0.31115 h 0.05715 c 0.127,0 0.3175,-0.0952 0.32385,-0.127 v -2.08915 c 0.127,-0.0254 0.2286,-0.0826 0.27305,-0.13335 l -0.4953,-0.37465 -0.22225,0.2413 h -0.99695 l -0.37465,-0.1651 c 0.12065,-0.19685 0.22225,-0.4064 0.3302,-0.6223 h 2.19075 c -0.03175,2.1082 -0.0889,3.6449 -0.3175,3.8735 -0.05715,0.0635 -0.1016,0.0889 -0.2413,0.0889 -0.14605,0 -0.64135,-0.0508 -0.9525,-0.0826 l -0.0063,0.1143 c 0.2794,0.0444 0.5842,0.12065 0.67945,0.19685 0.1016,0.0635 0.127,0.18415 0.12065,0.31115 0.3175,0.006 0.5715,-0.0952 0.74295,-0.3048 0.27305,-0.3683 0.34925,-1.87325 0.37465,-4.1402 0.13335,-0.019 0.22225,-0.0508 0.26035,-0.10795 z"
           inkscape:connector-curvature="0" />
        <path
           id="path84"
           style="font-style:normal;font-variant:normal;font-weight:normal;font-stretch:normal;font-size:6.3499999px;font-family:'Noto Serif CJK SC';-inkscape-font-specification:'Noto Serif CJK SC';stroke-width:0.26458332"
           d="m 11.145278,272.21011 c 0.0064,0.53975 -0.22225,1.1176 -0.4445,1.3462 -0.1143,0.10795 -0.17145,0.254 -0.0889,0.36195 0.1016,0.127 0.3302,0.0508 0.4572,-0.1143 0.18415,-0.2413 0.36195,-0.81915 0.1905,-1.5875 z m -2.0955001,1.82245 h 0.9398 v 0.9271 c -0.33655,0.0889 -0.6604,0.17145 -0.9398,0.2413 z m 0.9398,-2.53365 v 1.0287 h -0.9398 v -1.0287 z m -0.9398,1.2192 h 0.9398 v 1.12395 h -0.9398 z m 2.0701001,2.06375 -0.03175,-0.1016 -0.7112,0.18415 v -3.3655 h 0.59055 c 0.0889,0 0.14605,-0.0318 0.1651,-0.1016 -0.20955,-0.1905 -0.53975,-0.4445 -0.53975,-0.4445 l -0.2921,0.36195 H 8.1734779 l 0.0508,0.18415 h 0.4445 v 3.79095 c -0.2159,0.0445 -0.38735,0.0762 -0.51435,0.1016 l 0.2159,0.51435 c 0.0635,-0.019 0.1143,-0.0762 0.13335,-0.1524 0.56515,-0.19685 1.0541,-0.381 1.4859,-0.53975 v 1.4605 h 0.0635 c 0.19685,0 0.32385,-0.1016 0.32385,-0.13335 v -1.4732 z m 2.38125,-2.5781 c -0.29845,0.55245 -0.65405,1.18745 -0.9271,1.6129 -0.10795,-0.4445 -0.1778,-0.9144 -0.2159,-1.4097 0.0063,-0.4064 0.0063,-0.8255 0.0127,-1.26365 0.1524,-0.019 0.20955,-0.0889 0.22225,-0.1778 l -0.635,-0.0698 c 0,2.54 0.1143,4.4069 -1.524,5.6896 l 0.0889,0.10795 c 1.2827,-0.81915 1.6637,-1.9431 1.78435,-3.3274 0.1651,1.3208 0.53975,2.54 1.42875,3.3147 0.05715,-0.20955 0.18415,-0.28575 0.37465,-0.31115 l 0.01905,-0.0698 c -0.8128,-0.5969 -1.26365,-1.397 -1.51765,-2.3241 0.3937,-0.3683 0.8382,-0.89535 1.21285,-1.3716 0.127,0.0317 0.2159,-0.019 0.254,-0.0762 z"
           inkscape:connector-curvature="0" />
      </g>
    </pattern>
    <pattern
       patternUnits="userSpaceOnUse"
       width="113.09425"
       height="22.176"
       patternTransform="matrix(0.26458333,0,0,0.26458333,0.91360625,290.60343)"
       id="pattern143">
      <text
         id="text72"
         y="20.280001"
         x="-0.85757709"
         style="font-style:normal;font-variant:normal;font-weight:normal;font-stretch:normal;font-size:24px;line-height:1.25;font-family:'Noto Serif CJK SC';-inkscape-font-specification:'Noto Serif CJK SC';letter-spacing:0px;word-spacing:0px;fill:#000000;fill-opacity:1;stroke:none;stroke-width:0.99999994"
         xml:space="preserve"><tspan
           style="stroke-width:0.99999994"
           id="tspan70"
           y="20.280001"
           x="-0.85757709"
           sodipodi:role="line"><tspan
             style="stroke-width:0.99999994"
             id="tspan56"
             y="20.280001"
             x="-0.85757709">灯 　 维 基</tspan></tspan></text>
    </pattern>
  </defs>
  <metadata
     id="metadata5">
    <rdf:RDF>
      <cc:Work
         rdf:about="">
        <dc:format>image/svg+xml</dc:format>
        <dc:type
           rdf:resource="http://purl.org/dc/dcmitype/StillImage" />
        <dc:title />
      </cc:Work>
    </rdf:RDF>
  </metadata>
  <g
     transform="translate(0,-287.73957)"
     id="layer1">
    <rect
       style="fill:none;stroke:none"
       width="29.922853"
       height="5.8673997"
       x="0.91360623"
       y="290.86801"
       id="rect148" />
    <path
       style="fill:none;stroke:none"
       d="m 8.1544275,262.94547 h 5.9753495 v 13.74779 H 8.1544275 Z"
       id="rect102" />
    <path
       sodipodi:nodetypes="ccccccccccccccccccccccccccc"
       id="path115"
       style="font-style:normal;font-variant:normal;font-weight:normal;font-stretch:normal;font-size:6.3499999px;line-height:1.25;font-family:'Noto Serif CJK SC';-inkscape-font-specification:'Noto Serif CJK SC';letter-spacing:0px;word-spacing:0px;fill:#550000;fill-opacity:1;stroke:none;stroke-width:0.26458332"
       d="m 8.9820446,294.94428 c 0.0635,-0.0254 0.12065,-0.0762 0.1651,-0.1524 0.7239,-0.2159 1.3779504,-0.45085 1.7526004,-0.5715 l -0.01905,-0.1016 c -0.6096,0.0953 -1.2192004,0.1778 -1.6383004,0.22225 0.64135,-0.55245 1.3398504,-1.35255 1.7145004,-1.91135 0.12065,0.0318 0.2032,-0.0127 0.23495,-0.0698 l -0.5588,-0.34925 c -0.09525,0.2159 -0.254,0.4826 -0.43815,0.76835 -0.3873504,0.0254 -0.7747004,0.0508 -1.0668004,0.0635 0.4318,-0.4445 0.8953504,-1.07315 1.1620504,-1.5367 0.127,0.0127 0.2032,-0.0381 0.23495,-0.1016 l -0.6096004,-0.27305 c -0.17145,0.50165 -0.64135,1.45415 -1.02235,1.84785 -0.0381,0.0317 -0.15875,0.0571 -0.15875,0.0571 l 0.2286,0.55245 c 0.04445,-0.019 0.09525,-0.0635 0.1397,-0.127 0.3556,-0.0953 0.6985,-0.2032 0.9652004,-0.28575 -0.3492504,0.51435 -0.7683504,1.03505 -1.1176004,1.33985 -0.0508,0.0381 -0.18415,0.0635 -0.18415,0.0635 z m 0.0508,1.40335 c 0.0635,-0.0254 0.1143,-0.0889 0.13335,-0.1651 0.8128,-0.3556 1.4097004,-0.67945 1.8542004,-0.9144 l -0.03175,-0.0953 c -0.89535,0.27305 -1.8161004,0.52705 -2.2288504,0.61595 z"
       inkscape:connector-curvature="0" />
    <path
       sodipodi:nodetypes="cccccccccccccccccccccc"
       id="path117"
       style="font-style:normal;font-variant:normal;font-weight:normal;font-stretch:normal;font-size:6.3499999px;line-height:1.25;font-family:'Noto Serif CJK SC';-inkscape-font-specification:'Noto Serif CJK SC';letter-spacing:0px;word-spacing:0px;fill:#550000;fill-opacity:1;stroke:none;stroke-width:0.26458332"
       d="m 11.674445,292.25189 c 0.0064,0.53975 -0.22225,1.1176 -0.4445,1.3462 -0.1143,0.10795 -0.17145,0.254 -0.0889,0.36195 0.1016,0.127 0.3302,0.0508 0.4572,-0.1143 0.18415,-0.2413 0.36195,-0.81915 0.1905,-1.5875 z m 2.35585,-0.006 c -0.29845,0.55245 -0.65405,1.18745 -0.9271,1.6129 -0.10795,-0.4445 -0.1778,-0.9144 -0.2159,-1.4097 0.0063,-0.4064 0.0063,-0.8255 0.0127,-1.26365 0.1524,-0.019 0.20955,-0.0889 0.22225,-0.1778 l -0.635,-0.0698 c 0,2.54 0.1143,4.4069 -1.524,5.6896 l 0.0889,0.10795 c 1.2827,-0.81915 1.6637,-1.9431 1.78435,-3.3274 0.1651,1.3208 0.53975,2.54 1.42875,3.3147 0.05715,-0.20955 0.18415,-0.28575 0.37465,-0.31115 l 0.01905,-0.0698 c -0.8128,-0.5969 -1.26365,-1.397 -1.51765,-2.3241 0.3937,-0.3683 0.8382,-0.89535 1.21285,-1.3716 0.127,0.0317 0.2159,-0.019 0.254,-0.0762 z"
       inkscape:connector-curvature="0" />
    <path
       inkscape:connector-curvature="0"
       id="path156"
       style="font-style:normal;font-variant:normal;font-weight:normal;font-stretch:normal;font-size:6.3499999px;line-height:1.25;font-family:'Noto Serif CJK SC';-inkscape-font-specification:'Noto Serif CJK SC';letter-spacing:0px;word-spacing:0px;fill:#550000;fill-opacity:1;stroke:none;stroke-width:0.26458332"
       d="m 1.5058556,292.34755 c 0,0.6096 -0.2667,1.0033 -0.42545,1.12395 -0.36194995,0.28575 -0.06985,0.60325 0.26035,0.3683 0.29845,-0.2159 0.41275,-0.73025 0.254,-1.49225 z m 0.57785,-1.36525 c 0,2.8194 0.14605,4.5085 -1.16839995,5.6007 l 0.0762,0.10795 c 0.74294995,-0.4826 1.11759995,-1.09855 1.30809995,-1.8923 0.37465,0.3302 0.78105,0.8001 0.889,1.1811 0.4699,0.3048 0.7366,-0.6858 -0.85725,-1.3208 0.08255,-0.3937 0.12065,-0.8255 0.1397,-1.30175 l 0.00635,0.006 c 0.36195,-0.2413 0.76835,-0.5842 0.98425,-0.79375 0.12065,0.0444 0.20955,-0.006 0.23495,-0.0508 l -0.53975,-0.36195 c -0.13335,0.254 -0.4318,0.7239 -0.67945,1.0668 0.01905,-0.5969 0.0127,-1.2573 0.01905,-2.00025 0.14605,-0.019 0.2032,-0.0825 0.22225,-0.17145 z m 3.90525,0.52705 h -3.01625 l 0.0508,0.1905 h 2.0447 v 4.32435 c 0,0.1016 -0.03175,0.13335 -0.1524,0.13335 -0.1524,0 -0.84455,-0.0508 -0.84455,-0.0508 v 0.0953 c 0.3048,0.0444 0.47625,0.1016 0.57785,0.18415 0.0889,0.0699 0.13335,0.1905 0.14605,0.33655 0.60325,-0.0698 0.67945,-0.33655 0.67945,-0.67945 v -4.3434 h 1.17475 c 0.0889,0 0.14605,-0.0317 0.1651,-0.1016 -0.19685,-0.19685 -0.5334,-0.4572 -0.5334,-0.4572 z" />
    <path
       inkscape:connector-curvature="0"
       id="path158"
       style="font-style:normal;font-variant:normal;font-weight:normal;font-stretch:normal;font-size:6.3499999px;line-height:1.25;font-family:'Noto Serif CJK SC';-inkscape-font-specification:'Noto Serif CJK SC';letter-spacing:0px;word-spacing:0px;fill:#550000;fill-opacity:1;stroke:none;stroke-width:0.26458332"
       d="m 20.549474,290.91245 c 0.23495,0.254 0.48895,0.67945 0.50165,1.0287 0.4064,0.34925 0.81915,-0.55245 -0.42545,-1.07315 z m -3.35915,4.04495 c 0.05715,-0.019 0.1143,-0.0699 0.1651,-0.1524 0.6858,-0.2159 1.31445,-0.4445 1.6637,-0.5715 l -0.01905,-0.0953 c -0.59055,0.0889 -1.17475,0.17145 -1.58115,0.2286 0.5842,-0.56515 1.22555,-1.3716 1.5621,-1.92405 0.127,0.019 0.20955,-0.0254 0.2413,-0.0762 l -0.57785,-0.3556 c -0.0762,0.2032 -0.2032,0.4572 -0.36195,0.7239 -0.3556,0.0254 -0.6985,0.0444 -0.9652,0.0508 0.38735,-0.41275 0.81915,-1.0287 1.0668,-1.46685 0.127,0.0127 0.2032,-0.0444 0.2286,-0.1016 l -0.6096,-0.27305 c -0.14605,0.4826 -0.55245,1.3716 -0.88265,1.74625 -0.04445,0.0317 -0.1524,0.0571 -0.1524,0.0571 l 0.22225,0.56515 c 0.04445,-0.019 0.08255,-0.0508 0.12065,-0.1016 0.29845,-0.0825 0.60325,-0.17145 0.84455,-0.254 -0.3048,0.5207 -0.6858,1.06045 -1.00965,1.36525 -0.0508,0.0381 -0.17145,0.0635 -0.17145,0.0635 z m 0.1016,1.397 c 0.05715,-0.0254 0.1143,-0.0826 0.127,-0.15875 0.762,-0.36195 1.32715,-0.6731 1.7399,-0.90805 l -0.0254,-0.0889 c -0.8509,0.27305 -1.7272,0.508 -2.12725,0.5969 z m 2.5146,-1.4478 h 1.00965 v 1.1684 h -1.00965 z m 1.00965,-2.57175 v 1.1049 h -1.00965 v -1.1049 z m 0,2.3876 h -1.00965 v -1.0922 h 1.00965 z m 1.2065,1.35255 h -0.81915 v -1.1684 h 1.18745 c 0.0889,0 0.14605,-0.0317 0.1651,-0.1016 -0.1905,-0.1905 -0.50165,-0.43815 -0.50165,-0.43815 l -0.2667,0.3556 h -0.5842 v -1.0922 h 1.18745 c 0.0889,0 0.14605,-0.0317 0.1651,-0.1016 -0.1905,-0.1905 -0.50165,-0.43815 -0.50165,-0.43815 l -0.2667,0.34925 h -0.5842 v -1.1049 h 1.3843 c 0.0889,0 0.14605,-0.0318 0.1651,-0.1016 -0.19685,-0.1905 -0.51435,-0.4445 -0.51435,-0.4445 l -0.27305,0.3556 h -2.07645 l -0.06985,-0.0317 c 0.1397,-0.29845 0.254,-0.5969 0.3429,-0.8509 0.1651,0.006 0.2159,-0.0318 0.2413,-0.10795 l -0.66675,-0.20955 c -0.15875,0.80645 -0.55245,1.9685 -1.08585,2.7559 l 0.0762,0.0698 c 0.2667,-0.2667 0.48895,-0.57785 0.69215,-0.9017 v 3.86715 h 0.0635 c 0.1905,0 0.32385,-0.10795 0.32385,-0.1397 v -0.33655 h 2.85115 c 0.0889,0 0.14605,-0.0317 0.1651,-0.1016 -0.2032,-0.1905 -0.5207,-0.4445 -0.5207,-0.4445 z" />
    <path
       inkscape:connector-curvature="0"
       id="path160"
       style="font-style:normal;font-variant:normal;font-weight:normal;font-stretch:normal;font-size:6.3499999px;line-height:1.25;font-family:'Noto Serif CJK SC';-inkscape-font-specification:'Noto Serif CJK SC';letter-spacing:0px;word-spacing:0px;fill:#550000;fill-opacity:1;stroke:none;stroke-width:0.26458332"
       d="m 29.585509,296.3925 h -1.5621 v -0.92075 h 1.25095 c 0.0889,0 0.14605,-0.0317 0.1651,-0.0953 -0.1905,-0.1778 -0.4953,-0.4191 -0.4953,-0.4191 l -0.2667,0.33655 h -0.65405 v -0.55245 c 0.1397,-0.019 0.1905,-0.0762 0.2032,-0.15875 l -0.62865,-0.0635 v 0.7747 h -1.39065 l 0.0508,0.1778 h 1.33985 v 0.92075 h -2.3876 l 0.05715,0.18415 h 5.0292 c 0.0889,0 0.15875,-0.0317 0.17145,-0.1016 -0.22225,-0.19685 -0.57785,-0.4699 -0.57785,-0.4699 z m -2.73685,-2.36855 V 293.408 h 1.96215 v 0.61595 z m 1.96215,-2.17805 v 0.5969 h -1.96215 v -0.5969 z m -1.96215,0.78105 h 1.96215 v 0.5969 h -1.96215 z m 3.72745,1.58115 c 0.09525,0 0.1524,-0.0317 0.17145,-0.1016 -0.20955,-0.2032 -0.5588,-0.47625 -0.5588,-0.47625 l -0.29845,0.3937 h -0.6604 v -2.17805 h 1.11125 c 0.0889,0 0.1524,-0.0317 0.17145,-0.0952 -0.20955,-0.1905 -0.53975,-0.46355 -0.53975,-0.46355 l -0.2921,0.381 h -0.45085 v -0.50165 c 0.1524,-0.0254 0.2159,-0.0889 0.23495,-0.18415 l -0.65405,-0.0699 v 0.75565 h -1.96215 v -0.50165 c 0.15875,-0.0317 0.20955,-0.0953 0.2286,-0.18415 l -0.6477,-0.0699 v 0.75565 h -1.22555 l 0.0508,0.1778 h 1.17475 v 2.17805 h -1.4986 l 0.04445,0.18415 h 1.54305 c -0.3683,0.5842 -0.9398,1.11125 -1.6256,1.4859 l 0.0635,0.10795 c 0.90805,-0.37465 1.65735,-0.9017 2.1082,-1.59385 h 1.65735 c 0.40005,0.66675 1.07315,1.2192 1.78435,1.50495 0.03175,-0.18415 0.14605,-0.3048 0.3175,-0.38735 l 0.0127,-0.0762 c -0.66675,-0.15875 -1.4859,-0.5334 -1.9177,-1.0414 z" />
    <g
       aria-label="⇧xdi8   ⇧aho      ‹⇧wEkE›"
       style="font-style:normal;font-weight:normal;font-size:4.23333311px;line-height:1.25;font-family:sans-serif;letter-spacing:0px;word-spacing:0px;fill:#000000;fill-opacity:1;stroke:none;stroke-width:0.26458332"
       id="text168">
      <path
         d="m 2.7029833,290.60553 h -0.314325 l -0.517525,-0.9906 -0.50165,0.9906 h -0.31115 l 0.64135,-1.17158 -0.574675,-1.00965 h 0.314325 l 0.434975,0.82868 0.4445,-0.82868 h 0.3048 l -0.57785,1.00013 z"
         style="font-style:normal;font-variant:normal;font-weight:normal;font-stretch:normal;font-size:3.17499995px;font-family:'Fira Xdi8';-inkscape-font-specification:'Fira Xdi8';stroke-width:0.26458332;fill:#550000"
         id="path178" />
      <path
         d="m 4.2492019,290.60553 h -0.24765 l -0.015875,-0.2413 q -0.17145,0.28575 -0.504825,0.28575 -0.295275,0 -0.460375,-0.23178 -0.161925,-0.23495 -0.161925,-0.6477 0,-0.25717 0.079375,-0.45402 0.08255,-0.19685 0.23495,-0.30798 0.1524,-0.11112 0.352425,-0.11112 0.2794,0 0.4445,0.21272 v -0.8763 l 0.2794,0.0318 z m -0.6858,-0.16828 q 0.1397,0 0.23495,-0.0699 0.098425,-0.0698 0.17145,-0.20637 v -0.84138 q -0.155575,-0.2159 -0.37465,-0.2159 -0.206375,0 -0.3302,0.17463 -0.12065,0.17462 -0.117475,0.4953 0,0.33655 0.10795,0.50165 0.111125,0.16192 0.307975,0.16192 z"
         style="font-style:normal;font-variant:normal;font-weight:normal;font-stretch:normal;font-size:3.17499995px;font-family:'Fira Xdi8';-inkscape-font-specification:'Fira Xdi8';stroke-width:0.26458332;fill:#550000"
         id="path180" />
      <path
         d="m 4.9572221,288.183 q 0.0762,0 0.123825,0.0476 0.047625,0.0476 0.047625,0.11747 0,0.0699 -0.047625,0.11748 -0.047625,0.0444 -0.123825,0.0444 -0.0762,0 -0.127,-0.0444 -0.047625,-0.0476 -0.047625,-0.11748 0,-0.0698 0.047625,-0.11747 0.0508,-0.0476 0.127,-0.0476 z m 0.1397,2.42253 h -0.2794 v -1.66688 h 0.2794 z"
         style="font-style:normal;font-variant:normal;font-weight:normal;font-stretch:normal;font-size:3.17499995px;font-family:'Fira Xdi8';-inkscape-font-specification:'Fira Xdi8';stroke-width:0.26458332;fill:#550000"
         id="path182" />
      <path
         d="m 6.5129668,289.7324 q 0.225425,0.0826 0.3302,0.18415 0.104775,0.0984 0.104775,0.26035 0,0.127 -0.079375,0.23495 -0.079375,0.10795 -0.2413,0.17463 -0.15875,0.0635 -0.38735,0.0635 -0.231775,0 -0.3937,-0.0635 -0.15875,-0.0635 -0.238125,-0.16828 -0.079375,-0.10795 -0.079375,-0.23812 0,-0.1524 0.10795,-0.2794 0.10795,-0.127 0.301625,-0.19368 -0.15875,-0.0698 -0.23495,-0.15875 -0.073025,-0.0889 -0.073025,-0.20955 0,-0.127 0.0762,-0.2286 0.0762,-0.1016 0.219075,-0.15875 0.142875,-0.0603 0.333375,-0.0603 0.269875,0 0.43815,0.12065 0.17145,0.11747 0.17145,0.30797 0,0.13653 -0.0889,0.23495 -0.085725,0.0984 -0.2667,0.1778 z m -0.631825,-0.39052 q 0,0.0921 0.06985,0.1524 0.073025,0.0603 0.24765,0.12382 l 0.1143,0.0413 q 0.161925,-0.0762 0.231775,-0.14923 0.073025,-0.0762 0.073025,-0.1778 0,-0.11112 -0.098425,-0.18097 -0.09525,-0.073 -0.263525,-0.073 -0.174625,0 -0.276225,0.0762 -0.098425,0.073 -0.098425,0.18733 z m 0.365125,1.12077 q 0.20955,0 0.32385,-0.0825 0.117475,-0.0857 0.117475,-0.21907 0,-0.12065 -0.092075,-0.1905 -0.092075,-0.0698 -0.3048,-0.1397 l -0.161925,-0.0508 q -0.17145,0.0635 -0.257175,0.15875 -0.08255,0.0952 -0.08255,0.21272 0,0.14605 0.117475,0.2286 0.12065,0.0825 0.339725,0.0825 z"
         style="font-style:normal;font-variant:normal;font-weight:normal;font-stretch:normal;font-size:3.17499995px;font-family:'Fira Xdi8';-inkscape-font-specification:'Fira Xdi8';stroke-width:0.26458332;fill:#550000"
         id="path184" />
      <path
         d="M 10.3025,290.04038 H 9.4833502 l -0.17145,0.56515 h -0.301625 l 0.7112,-2.18123 h 0.3492498 l 0.7112,2.18123 H 10.47395 Z m -0.04763,-0.21273 -0.3619498,-1.1938 -0.36195,1.1938 z"
         style="font-style:normal;font-variant:normal;font-weight:normal;font-stretch:normal;font-size:3.17499995px;font-family:'Fira Xdi8';-inkscape-font-specification:'Fira Xdi8';stroke-width:0.26458332;fill:#550000"
         id="path186" />
      <path
         d="m 11.928098,288.89738 q 0.2159,0 0.3302,0.13335 0.117475,0.13335 0.117475,0.37465 v 1.20015 h -0.2794 v -1.1557 q 0,-0.3429 -0.269875,-0.3429 -0.136525,0 -0.24765,0.0794 -0.10795,0.0794 -0.206375,0.23178 v 1.18745 h -0.2794 v -2.33998 l 0.2794,-0.0318 v 0.97155 q 0.1143,-0.1524 0.24765,-0.2286 0.136525,-0.0794 0.307975,-0.0794 z"
         style="font-style:normal;font-variant:normal;font-weight:normal;font-stretch:normal;font-size:3.17499995px;font-family:'Fira Xdi8';-inkscape-font-specification:'Fira Xdi8';stroke-width:0.26458332;fill:#550000"
         id="path188" />
      <path
         d="m 13.544172,288.89738 q 0.346075,0 0.542925,0.2286 0.19685,0.22542 0.19685,0.64135 0,0.27305 -0.09207,0.47307 -0.0889,0.19685 -0.257175,0.3048 -0.1651,0.10478 -0.390525,0.10478 -0.346075,0 -0.542925,-0.23178 -0.19685,-0.23177 -0.19685,-0.64452 0,-0.26988 0.0889,-0.46673 0.09207,-0.20002 0.257175,-0.3048 0.168275,-0.10477 0.3937,-0.10477 z m 0,0.20637 q -0.2159,0 -0.333375,0.17145 -0.117475,0.16828 -0.117475,0.49848 0,0.32702 0.1143,0.4953 0.117475,0.16827 0.33655,0.16827 0.2159,0 0.333375,-0.16827 0.117475,-0.17145 0.117475,-0.50165 0,-0.32703 -0.117475,-0.4953 -0.1143,-0.16828 -0.333375,-0.16828 z"
         style="font-style:normal;font-variant:normal;font-weight:normal;font-stretch:normal;font-size:3.17499995px;font-family:'Fira Xdi8';-inkscape-font-specification:'Fira Xdi8';stroke-width:0.26458332;fill:#550000"
         id="path190" />
      <path
         d="m 20.468835,289.04343 -0.42545,0.65405 0.42545,0.65087 -0.174625,0.1143 -0.536575,-0.67945 v -0.17145 l 0.536575,-0.68262 z"
         style="font-style:normal;font-variant:normal;font-weight:normal;font-stretch:normal;font-size:3.17499995px;font-family:'Fira Xdi8';-inkscape-font-specification:'Fira Xdi8';stroke-width:0.26458332;fill:#550000"
         id="path192" />
      <path
         d="m 22.758009,290.60553 h -0.371475 l -0.415925,-1.90183 -0.422275,1.90183 h -0.36195 l -0.4318,-2.18123 h 0.2921 l 0.34925,1.9558 0.42545,-1.9558 h 0.31115 l 0.41275,1.9558 0.3683,-1.9558 h 0.2794 z"
         style="font-style:normal;font-variant:normal;font-weight:normal;font-stretch:normal;font-size:3.17499995px;font-family:'Fira Xdi8';-inkscape-font-specification:'Fira Xdi8';stroke-width:0.26458332;fill:#550000"
         id="path194" />
      <path
         d="m 24.078809,288.89738 q 0.32385,0 0.55245,0.16827 l -0.117475,0.14923 q -0.09208,-0.0603 -0.187325,-0.0889 -0.09525,-0.0318 -0.212725,-0.0318 -0.161925,0 -0.257175,0.0762 -0.09208,0.073 -0.09208,0.20002 0,0.12065 0.09208,0.20003 0.09207,0.0794 0.257175,0.0794 h 0.200025 l -0.02858,0.18098 h -0.187325 q -0.193675,0 -0.295275,0.0794 -0.09842,0.0762 -0.09842,0.22543 0,0.14605 0.104775,0.2286 0.10795,0.0825 0.2921,0.0825 0.13335,0 0.23495,-0.0349 0.1016,-0.0381 0.2159,-0.12065 l 0.117475,0.15875 q -0.12065,0.0953 -0.269875,0.14923 -0.14605,0.0508 -0.339725,0.0508 -0.282575,0 -0.46355,-0.13018 -0.1778,-0.13335 -0.1778,-0.36195 0,-0.19367 0.117475,-0.30162 0.117475,-0.11113 0.3302,-0.13335 -0.1905,-0.0349 -0.28575,-0.13335 -0.09525,-0.1016 -0.09525,-0.25083 0,-0.2032 0.1651,-0.32067 0.1651,-0.12065 0.428625,-0.12065 z"
         style="font-style:normal;font-variant:normal;font-weight:normal;font-stretch:normal;font-size:3.17499995px;font-family:'Fira Xdi8';-inkscape-font-specification:'Fira Xdi8';stroke-width:0.26458332;fill:#550000"
         id="path196" />
      <path
         d="m 25.294831,290.60553 h -0.2794 v -2.33998 l 0.2794,-0.0318 z m 0.307975,-0.92075 0.714375,0.92075 h -0.314325 l -0.69215,-0.91123 0.657225,-0.75565 h 0.288925 z"
         style="font-style:normal;font-variant:normal;font-weight:normal;font-stretch:normal;font-size:3.17499995px;font-family:'Fira Xdi8';-inkscape-font-specification:'Fira Xdi8';stroke-width:0.26458332;fill:#550000"
         id="path198" />
      <path
         d="m 27.129973,288.89738 q 0.32385,0 0.55245,0.16827 l -0.117475,0.14923 q -0.09208,-0.0603 -0.187325,-0.0889 -0.09525,-0.0318 -0.212725,-0.0318 -0.161925,0 -0.257175,0.0762 -0.09208,0.073 -0.09208,0.20002 0,0.12065 0.09208,0.20003 0.09207,0.0794 0.257175,0.0794 h 0.200025 l -0.02858,0.18098 h -0.187325 q -0.193675,0 -0.295275,0.0794 -0.09842,0.0762 -0.09842,0.22543 0,0.14605 0.104775,0.2286 0.10795,0.0825 0.2921,0.0825 0.13335,0 0.23495,-0.0349 0.1016,-0.0381 0.2159,-0.12065 l 0.117475,0.15875 q -0.12065,0.0953 -0.269875,0.14923 -0.14605,0.0508 -0.339725,0.0508 -0.282575,0 -0.46355,-0.13018 -0.1778,-0.13335 -0.1778,-0.36195 0,-0.19367 0.117475,-0.30162 0.117475,-0.11113 0.3302,-0.13335 -0.1905,-0.0349 -0.28575,-0.13335 -0.09525,-0.1016 -0.09525,-0.25083 0,-0.2032 0.1651,-0.32067 0.1651,-0.12065 0.428625,-0.12065 z"
         style="font-style:normal;font-variant:normal;font-weight:normal;font-stretch:normal;font-size:3.17499995px;font-family:'Fira Xdi8';-inkscape-font-specification:'Fira Xdi8';stroke-width:0.26458332;fill:#550000"
         id="path200" />
      <path
         d="m 28.69842,289.61175 v 0.17145 l -0.5334,0.67945 -0.1778,-0.1143 0.428625,-0.65087 -0.42545,-0.65405 0.174625,-0.1143 z"
         style="font-style:normal;font-variant:normal;font-weight:normal;font-stretch:normal;font-size:3.17499995px;font-family:'Fira Xdi8';-inkscape-font-specification:'Fira Xdi8';stroke-width:0.26458332;fill:#550000"
         id="path202" />
    </g>
  </g>
</svg>

